<svg width="160" height="51" viewBox="0 0 160 51" fill="none" xmlns="http://www.w3.org/2000/svg">
<path d="M35.96 37.44C35.56 37.7867 35 38.1333 34.28 38.48C33.56 38.8267 32.7467 39.1467 31.84 39.44C30.96 39.7067 30.0533 39.92 29.12 40.08C28.1867 40.24 27.3067 40.32 26.48 40.32C23.3867 40.32 20.7067 39.7067 18.44 38.48C16.1733 37.2267 14.4133 35.5333 13.16 33.4C11.9333 31.2667 11.32 28.84 11.32 26.12C11.32 23.64 11.7067 21.44 12.48 19.52C13.28 17.6 14.3733 15.9867 15.76 14.68C17.1467 13.3733 18.72 12.3867 20.48 11.72C22.2667 11.0267 24.16 10.68 26.16 10.68C27.8933 10.68 29.4933 10.88 30.96 11.28C32.4267 11.68 33.7067 12.1867 34.8 12.8L33.4 16.68C32.8667 16.36 32.2 16.0667 31.4 15.8C30.6267 15.5067 29.8133 15.28 28.96 15.12C28.1333 14.96 27.3733 14.88 26.68 14.88C24.44 14.88 22.4933 15.32 20.84 16.2C19.1867 17.08 17.9067 18.3333 17 19.96C16.0933 21.5867 15.64 23.52 15.64 25.76C15.64 27.8133 16.0933 29.6267 17 31.2C17.9333 32.7467 19.2133 33.96 20.84 34.84C22.4933 35.72 24.4 36.16 26.56 36.16C27.52 36.16 28.4533 36.0667 29.36 35.88C30.2933 35.6933 31.08 35.4133 31.72 35.04V29.68H26.08V25.64H35.96V37.44Z" fill="black"/>
<path d="M83.6206 37.6602V41H62.6807V38.0776L73.1616 26.4102C74.4507 24.9746 75.4468 23.7588 76.1499 22.7627C76.8677 21.752 77.3657 20.8511 77.644 20.0601C77.937 19.2544 78.0835 18.4341 78.0835 17.5991C78.0835 16.5444 77.8638 15.5923 77.4243 14.7427C76.9995 13.8784 76.3696 13.1899 75.5347 12.6772C74.6997 12.1646 73.689 11.9082 72.5024 11.9082C71.0815 11.9082 69.895 12.1865 68.9429 12.7432C68.0054 13.2852 67.3022 14.0469 66.8335 15.0283C66.3647 16.0098 66.1304 17.1377 66.1304 18.4121H62.0654C62.0654 16.6104 62.4609 14.9624 63.252 13.4683C64.043 11.9741 65.2148 10.7876 66.7676 9.90869C68.3203 9.01514 70.2319 8.56836 72.5024 8.56836C74.5239 8.56836 76.2524 8.92725 77.688 9.64502C79.1235 10.3481 80.2222 11.3442 80.9839 12.6333C81.7603 13.9077 82.1484 15.4019 82.1484 17.1157C82.1484 18.0532 81.9873 19.0054 81.665 19.9722C81.3574 20.9243 80.9253 21.8765 80.3687 22.8286C79.8267 23.7808 79.1895 24.7183 78.457 25.6411C77.7393 26.564 76.9702 27.4722 76.1499 28.3657L67.5806 37.6602H83.6206Z" fill="black"/>
<path d="M108.054 22.4551V27.333C108.054 29.9551 107.82 32.167 107.351 33.9688C106.882 35.7705 106.208 37.2207 105.33 38.3193C104.451 39.418 103.389 40.2163 102.144 40.7144C100.913 41.1978 99.5215 41.4395 97.9688 41.4395C96.7383 41.4395 95.603 41.2856 94.563 40.978C93.5229 40.6704 92.5854 40.1797 91.7505 39.5059C90.9302 38.8174 90.2271 37.9238 89.6411 36.8252C89.0552 35.7266 88.6084 34.3936 88.3008 32.8262C87.9932 31.2588 87.8394 29.4277 87.8394 27.333V22.4551C87.8394 19.833 88.0737 17.6357 88.5425 15.8633C89.0259 14.0908 89.707 12.6699 90.5859 11.6006C91.4648 10.5166 92.5195 9.74023 93.75 9.27148C94.9951 8.80273 96.3867 8.56836 97.9248 8.56836C99.1699 8.56836 100.312 8.72217 101.353 9.02979C102.407 9.32275 103.345 9.79883 104.165 10.458C104.985 11.1025 105.681 11.9668 106.252 13.0508C106.838 14.1201 107.285 15.4312 107.593 16.9839C107.9 18.5366 108.054 20.3604 108.054 22.4551ZM103.967 27.9922V21.7739C103.967 20.3384 103.879 19.0786 103.704 17.9946C103.542 16.896 103.301 15.9585 102.979 15.1821C102.656 14.4058 102.246 13.7759 101.748 13.2925C101.265 12.8091 100.701 12.4575 100.056 12.2378C99.4263 12.0034 98.7158 11.8862 97.9248 11.8862C96.958 11.8862 96.1011 12.0693 95.354 12.4355C94.6069 12.7871 93.9771 13.3511 93.4644 14.1274C92.9663 14.9038 92.5854 15.9219 92.3218 17.1816C92.0581 18.4414 91.9263 19.9722 91.9263 21.7739V27.9922C91.9263 29.4277 92.0068 30.6948 92.168 31.7935C92.3438 32.8921 92.6001 33.8442 92.937 34.6499C93.2739 35.4409 93.6841 36.0928 94.1675 36.6055C94.6509 37.1182 95.2075 37.499 95.8374 37.748C96.4819 37.9824 97.1924 38.0996 97.9688 38.0996C98.9648 38.0996 99.8364 37.9092 100.583 37.5283C101.331 37.1475 101.953 36.5542 102.451 35.7485C102.964 34.9282 103.345 33.8809 103.594 32.6064C103.843 31.3174 103.967 29.7793 103.967 27.9922Z" fill="black"/>
<path d="M134.905 30.2334V33.5732H111.79V31.1782L126.116 9.00781H129.434L125.874 15.4238L116.404 30.2334H134.905ZM130.444 9.00781V41H126.379V9.00781H130.444Z" fill="black"/>
<path d="M154.197 8.96387H154.548V12.4136H154.197C152.043 12.4136 150.242 12.7651 148.792 13.4683C147.341 14.1567 146.191 15.0869 145.342 16.2588C144.492 17.416 143.877 18.7197 143.496 20.1699C143.13 21.6201 142.947 23.0923 142.947 24.5864V29.2886C142.947 30.7095 143.115 31.9692 143.452 33.0679C143.789 34.1519 144.25 35.0674 144.836 35.8145C145.422 36.5615 146.082 37.1255 146.814 37.5063C147.561 37.8872 148.337 38.0776 149.143 38.0776C150.081 38.0776 150.916 37.9019 151.648 37.5503C152.38 37.1841 152.996 36.6787 153.494 36.0342C154.006 35.375 154.395 34.5986 154.658 33.7051C154.922 32.8115 155.054 31.8301 155.054 30.7607C155.054 29.8086 154.937 28.8931 154.702 28.0142C154.468 27.1206 154.109 26.3296 153.625 25.6411C153.142 24.938 152.534 24.3887 151.802 23.9932C151.084 23.583 150.227 23.3779 149.231 23.3779C148.103 23.3779 147.048 23.6562 146.067 24.2129C145.1 24.7549 144.302 25.4727 143.672 26.3662C143.057 27.2451 142.705 28.2046 142.617 29.2446L140.464 29.2227C140.669 27.582 141.05 26.1831 141.606 25.0259C142.178 23.854 142.881 22.9019 143.716 22.1694C144.565 21.4224 145.51 20.8804 146.55 20.5435C147.605 20.1919 148.718 20.0161 149.89 20.0161C151.487 20.0161 152.864 20.3164 154.021 20.917C155.178 21.5176 156.13 22.3232 156.877 23.334C157.625 24.3301 158.174 25.458 158.525 26.7178C158.892 27.9629 159.075 29.2446 159.075 30.563C159.075 32.0718 158.862 33.4854 158.438 34.8037C158.013 36.1221 157.375 37.2793 156.526 38.2754C155.691 39.2715 154.658 40.0479 153.428 40.6045C152.197 41.1611 150.769 41.4395 149.143 41.4395C147.415 41.4395 145.906 41.0879 144.617 40.3848C143.328 39.667 142.258 38.7148 141.409 37.5283C140.559 36.3418 139.922 35.0234 139.497 33.5732C139.072 32.123 138.86 30.6509 138.86 29.1567V27.2451C138.86 24.9893 139.087 22.7773 139.541 20.6094C139.995 18.4414 140.779 16.4785 141.892 14.7207C143.02 12.9629 144.58 11.564 146.572 10.5239C148.564 9.48389 151.106 8.96387 154.197 8.96387Z" fill="black"/>
<path fill-rule="evenodd" clip-rule="evenodd" d="M25.5 47C37.3741 47 47 37.3741 47 25.5C47 13.6259 37.3741 4 25.5 4C13.6259 4 4 13.6259 4 25.5C4 37.3741 13.6259 47 25.5 47ZM25.5 51C39.5833 51 51 39.5833 51 25.5C51 11.4167 39.5833 0 25.5 0C11.4167 0 0 11.4167 0 25.5C0 39.5833 11.4167 51 25.5 51Z" fill="black"/>
</svg>
