<svg width="54" height="10" viewBox="0 0 54 10" fill="none" xmlns="http://www.w3.org/2000/svg">
  <path d="M5.04492 6.73242C5.04492 6.43164 4.9375 6.19727 4.72266 6.0293C4.51172 5.86133 4.13867 5.6875 3.60352 5.50781C3.06836 5.32812 2.63086 5.1543 2.29102 4.98633C1.18555 4.44336 0.632812 3.69727 0.632812 2.74805C0.632812 2.27539 0.769531 1.85937 1.04297 1.5C1.32031 1.13672 1.71094 0.855469 2.21484 0.65625C2.71875 0.453125 3.28516 0.351562 3.91406 0.351562C4.52734 0.351562 5.07617 0.460938 5.56055 0.679688C6.04883 0.898437 6.42773 1.21094 6.69727 1.61719C6.9668 2.01953 7.10156 2.48047 7.10156 3H5.05078C5.05078 2.65234 4.94336 2.38281 4.72852 2.19141C4.51758 2 4.23047 1.9043 3.86719 1.9043C3.5 1.9043 3.20898 1.98633 2.99414 2.15039C2.7832 2.31055 2.67773 2.51562 2.67773 2.76562C2.67773 2.98438 2.79492 3.18359 3.0293 3.36328C3.26367 3.53906 3.67578 3.72266 4.26562 3.91406C4.85547 4.10156 5.33984 4.30469 5.71875 4.52344C6.64062 5.05469 7.10156 5.78711 7.10156 6.7207C7.10156 7.4668 6.82031 8.05273 6.25781 8.47852C5.69531 8.9043 4.92383 9.11719 3.94336 9.11719C3.25195 9.11719 2.625 8.99414 2.0625 8.74805C1.50391 8.49805 1.08203 8.1582 0.796875 7.72852C0.515625 7.29492 0.375 6.79688 0.375 6.23438H2.4375C2.4375 6.69141 2.55469 7.0293 2.78906 7.24805C3.02734 7.46289 3.41211 7.57031 3.94336 7.57031C4.2832 7.57031 4.55078 7.49805 4.74609 7.35352C4.94531 7.20508 5.04492 6.99805 5.04492 6.73242ZM10.3652 1.08398V2.66016H11.4082V4.03125H10.3652V6.93164C10.3652 7.16992 10.4082 7.33594 10.4941 7.42969C10.5801 7.52344 10.75 7.57031 11.0039 7.57031C11.1992 7.57031 11.3633 7.55859 11.4961 7.53516V8.94727C11.1406 9.06055 10.7695 9.11719 10.3828 9.11719C9.70312 9.11719 9.20117 8.95703 8.87695 8.63672C8.55273 8.31641 8.39062 7.83008 8.39062 7.17773V4.03125H7.58203V2.66016H8.39062V1.08398H10.3652ZM15.7617 9C15.6914 8.87109 15.6289 8.68164 15.5742 8.43164C15.2109 8.88867 14.7031 9.11719 14.0508 9.11719C13.4531 9.11719 12.9453 8.9375 12.5273 8.57812C12.1094 8.21484 11.9004 7.75977 11.9004 7.21289C11.9004 6.52539 12.1543 6.00586 12.6621 5.6543C13.1699 5.30273 13.9082 5.12695 14.877 5.12695H15.4863V4.79297C15.4863 4.21094 15.2344 3.91992 14.7305 3.91992C14.2617 3.91992 14.0273 4.15039 14.0273 4.61133H12.0527C12.0527 3.99805 12.3125 3.5 12.832 3.11719C13.3555 2.73438 14.0215 2.54297 14.8301 2.54297C15.6387 2.54297 16.2773 2.74023 16.7461 3.13477C17.2148 3.5293 17.4551 4.07031 17.4668 4.75781V7.56445C17.4746 8.14648 17.5645 8.5918 17.7363 8.90039V9H15.7617ZM14.5254 7.71094C14.7715 7.71094 14.9746 7.6582 15.1348 7.55273C15.2988 7.44727 15.416 7.32812 15.4863 7.19531V6.18164H14.9121C14.2246 6.18164 13.8809 6.49023 13.8809 7.10742C13.8809 7.28711 13.9414 7.43359 14.0625 7.54688C14.1836 7.65625 14.3379 7.71094 14.5254 7.71094ZM22.4004 4.44727L21.75 4.40039C21.1289 4.40039 20.7305 4.5957 20.5547 4.98633V9H18.5801V2.66016H20.4316L20.4961 3.47461C20.8281 2.85352 21.291 2.54297 21.8848 2.54297C22.0957 2.54297 22.2793 2.56641 22.4355 2.61328L22.4004 4.44727ZM25.7051 1.08398V2.66016H26.748V4.03125H25.7051V6.93164C25.7051 7.16992 25.748 7.33594 25.834 7.42969C25.9199 7.52344 26.0898 7.57031 26.3438 7.57031C26.5391 7.57031 26.7031 7.55859 26.8359 7.53516V8.94727C26.4805 9.06055 26.1094 9.11719 25.7227 9.11719C25.043 9.11719 24.541 8.95703 24.2168 8.63672C23.8926 8.31641 23.7305 7.83008 23.7305 7.17773V4.03125H22.9219V2.66016H23.7305V1.08398H25.7051ZM30.5977 9.11719C29.625 9.11719 28.8379 8.82812 28.2363 8.25C27.6348 7.66797 27.334 6.91211 27.334 5.98242V5.81836C27.334 5.16992 27.4531 4.59766 27.6914 4.10156C27.9336 3.60547 28.2852 3.22266 28.7461 2.95312C29.207 2.67969 29.7539 2.54297 30.3867 2.54297C31.2773 2.54297 31.9805 2.82031 32.4961 3.375C33.0117 3.92578 33.2695 4.69531 33.2695 5.68359V6.45117H29.3438C29.4141 6.80664 29.5684 7.08594 29.8066 7.28906C30.0449 7.49219 30.3535 7.59375 30.7324 7.59375C31.3574 7.59375 31.8457 7.375 32.1973 6.9375L33.0996 8.00391C32.8535 8.34375 32.5039 8.61523 32.0508 8.81836C31.6016 9.01758 31.1172 9.11719 30.5977 9.11719ZM30.375 4.06641C29.7969 4.06641 29.4531 4.44922 29.3438 5.21484H31.3359V5.0625C31.3438 4.74609 31.2637 4.50195 31.0957 4.33008C30.9277 4.1543 30.6875 4.06641 30.375 4.06641ZM37.9043 4.44727L37.2539 4.40039C36.6328 4.40039 36.2344 4.5957 36.0586 4.98633V9H34.084V2.66016H35.9355L36 3.47461C36.332 2.85352 36.7949 2.54297 37.3887 2.54297C37.5996 2.54297 37.7832 2.56641 37.9395 2.61328L37.9043 4.44727Z" fill="black"/>
  <path d="M41.6074 5.82422L40.7637 6.75V9H38.707V0.46875H40.7637V4.23047L41.4785 3.14648L43.3184 0.46875H45.8613L42.9785 4.24219L45.8613 9H43.4238L41.6074 5.82422ZM48.375 9H46.3945V2.66016H48.375V9ZM46.2773 1.02539C46.2773 0.744141 46.3789 0.513672 46.582 0.333984C46.7852 0.154297 47.0488 0.0644531 47.373 0.0644531C47.6973 0.0644531 47.9609 0.154297 48.1641 0.333984C48.3672 0.513672 48.4688 0.744141 48.4688 1.02539C48.4688 1.30664 48.3672 1.53711 48.1641 1.7168C47.9609 1.89648 47.6973 1.98633 47.373 1.98633C47.0488 1.98633 46.7852 1.89648 46.582 1.7168C46.3789 1.53711 46.2773 1.30664 46.2773 1.02539ZM51.8965 1.08398V2.66016H52.9395V4.03125H51.8965V6.93164C51.8965 7.16992 51.9395 7.33594 52.0254 7.42969C52.1113 7.52344 52.2812 7.57031 52.5352 7.57031C52.7305 7.57031 52.8945 7.55859 53.0273 7.53516V8.94727C52.6719 9.06055 52.3008 9.11719 51.9141 9.11719C51.2344 9.11719 50.7324 8.95703 50.4082 8.63672C50.084 8.31641 49.9219 7.83008 49.9219 7.17773V4.03125H49.1133V2.66016H49.9219V1.08398H51.8965Z" fill="#147AF2" />
</svg>
